<?xml version="1.0" encoding="UTF-8"?>
<svg version="1.1" xmlns="http://www.w3.org/2000/svg" width="500" height="500">
<path d="M0 0 C0.99 0 1.98 0 3 0 C3.18769904 5.91251987 2.59000221 11.12359219 1.25 16.875 C1.07098145 17.66221436 0.89196289 18.44942871 0.70751953 19.26049805 C-0.67026869 25.0971459 -2.51454924 30.53827416 -5 36 C-5.67315454 37.66405685 -6.34138039 39.330137 -7 41 C-7.66 41 -8.32 41 -9 41 C-9.17982422 41.86431641 -9.17982422 41.86431641 -9.36328125 42.74609375 C-12.53746448 53.98231291 -24.07104338 61.64754162 -33.68359375 67.1953125 C-36.76588639 68.89325139 -39.89619727 70.48465801 -43.05273438 72.03955078 C-45.05952989 73.02936191 -47.05378009 74.04150385 -49.046875 75.05859375 C-58.94988287 80.09195053 -69.00828568 84.75295852 -79.13671875 89.3125 C-88.33469602 93.46125202 -97.48309449 97.65305259 -106.47973633 102.22412109 C-112.57754196 105.3180541 -118.76895783 108.18322751 -125 111 C-111.89679436 108.88657974 -99.19322946 104.158674 -87 99 C-86.08476562 98.62230469 -85.16953125 98.24460937 -84.2265625 97.85546875 C-77.71179794 95.16235741 -71.23481775 92.38522943 -64.76171875 89.59375 C-62.15160191 88.47818565 -59.52908103 87.40028531 -56.89453125 86.34375 C-45.75703189 81.86952557 -35.11042973 76.70876235 -24.47265625 71.16015625 C-22.87744141 70.33837891 -22.87744141 70.33837891 -21.25 69.5 C-20.32703125 69.0153125 -19.4040625 68.530625 -18.453125 68.03125 C-16 67 -16 67 -12 67 C-12 67.99 -12 68.98 -12 70 C-12.66 70 -13.32 70 -14 70 C-14.0825 71.27875 -14.165 72.5575 -14.25 73.875 C-15.50767395 85.03685633 -22.01491264 98.22574991 -29 107 C-29.66 107 -30.32 107 -31 107 C-31.25007813 107.5878125 -31.50015625 108.175625 -31.7578125 108.78125 C-33.16426885 111.29341102 -34.66640992 112.66645352 -36.875 114.5 C-38.94985737 116.23562214 -40.93749622 117.9349368 -42.8125 119.88671875 C-45.70312089 122.679265 -48.86983653 124.96415833 -52.125 127.3125 C-52.7857251 127.79307861 -53.4464502 128.27365723 -54.12719727 128.76879883 C-59.37424424 132.57515498 -64.6630461 136.32064119 -70 140 C-69.73323796 141.98491642 -69.73323796 141.98491642 -69 144 C-68.01 144.33 -67.02 144.66 -66 145 C-64.65729179 146.99371825 -63.32346506 148.9934562 -62 151 C-61.34 151 -60.68 151 -60 151 C-58.78514615 149.27578573 -57.65181296 147.49365116 -56.5625 145.6875 C-54.58194489 142.41509253 -52.76223351 139.63667744 -50 137 C-49.484375 136.113125 -48.96875 135.22625 -48.4375 134.3125 C-47.7259375 133.1678125 -47.7259375 133.1678125 -47 132 C-46.34 132 -45.68 132 -45 132 C-44.7525 131.278125 -44.505 130.55625 -44.25 129.8125 C-42.80495005 126.5611376 -41.55793625 124.49810603 -39 122 C-36.17955346 121.55220307 -33.9772276 121.41159457 -31.171875 121.51171875 C-30.42286926 121.51879349 -29.67386353 121.52586823 -28.90216064 121.53315735 C-26.51707763 121.56107862 -24.13436944 121.62380465 -21.75 121.6875 C-20.13024232 121.71258618 -18.51044772 121.7353988 -16.890625 121.75585938 C-12.92617261 121.81089675 -8.96348847 121.89714678 -5 122 C-6.96346104 126.0403665 -9.08992517 130.13473631 -12.33203125 133.30078125 C-14.70946952 135.72276169 -16.70289015 138.42554863 -18.75 141.125 C-19.65084718 142.30483603 -20.55188934 143.48452319 -21.453125 144.6640625 C-22.10958008 145.52499512 -22.10958008 145.52499512 -22.77929688 146.40332031 C-24.34044574 148.44530303 -25.91829472 150.47391086 -27.5 152.5 C-28.04011719 153.19480469 -28.58023437 153.88960937 -29.13671875 154.60546875 C-30.16864976 155.93161908 -31.20128361 157.25722663 -32.23681641 158.58056641 C-33.59864292 160.32202369 -34.95579336 162.0670522 -36.3125 163.8125 C-36.745625 164.36421875 -37.17875 164.9159375 -37.625 165.484375 C-39.73853466 168.21130142 -41.61184039 170.8325419 -43 174 C-42.360625 174.763125 -41.72125 175.52625 -41.0625 176.3125 C-37.8013915 180.22767263 -34.56996001 184.16684674 -31.3515625 188.1171875 C-29.81257299 190.00385571 -28.26596905 191.88434445 -26.7109375 193.7578125 C-26.00195312 194.62148438 -25.29296875 195.48515625 -24.5625 196.375 C-23.92441406 197.14585937 -23.28632813 197.91671875 -22.62890625 198.7109375 C-21 201 -21 201 -19.96484375 203.7265625 C-19.64644531 204.47679687 -19.32804687 205.22703125 -19 206 C-18.01 206.33 -17.02 206.66 -16 207 C-14.60546875 208.6015625 -14.60546875 208.6015625 -13.1875 210.625 C-10.69973254 214.10413344 -8.04045651 217.25469722 -5.1015625 220.359375 C-4 222 -4 222 -4 226 C-8.48398784 226.09903473 -12.96739292 226.17154483 -17.45214844 226.21972656 C-18.97700085 226.23981599 -20.50177648 226.26709316 -22.02636719 226.30175781 C-24.22089598 226.35039796 -26.41440469 226.37299396 -28.609375 226.390625 C-29.92905273 226.41157227 -31.24873047 226.43251953 -32.60839844 226.45410156 C-36.5666875 225.92412621 -37.58659159 225.09069042 -40 222 C-40.75796875 221.06027344 -41.5159375 220.12054688 -42.296875 219.15234375 C-43.11800283 218.08334711 -43.93557431 217.01161151 -44.75 215.9375 C-45.3987207 215.08792725 -45.3987207 215.08792725 -46.06054688 214.22119141 C-50.85159206 207.92283134 -55.60961827 201.58557259 -60 195 C-64.05269101 199.63466401 -64.05269101 199.63466401 -67 205 C-67.66 205 -68.32 205 -69 205 C-69.2578125 205.70511719 -69.515625 206.41023437 -69.78125 207.13671875 C-71.10330186 210.24269315 -72.69747854 212.95978065 -74.5 215.8125 C-75.1084375 216.78832031 -75.716875 217.76414062 -76.34375 218.76953125 C-76.8903125 219.50558594 -77.436875 220.24164063 -78 221 C-78.66 221 -79.32 221 -80 221 C-80.33 222.32 -80.66 223.64 -81 225 C-90.57 225.33 -100.14 225.66 -110 226 C-108.96683731 220.83418654 -107.34739107 218.5736658 -104 214.8125 C-100.65619158 211.14750276 -100.65619158 211.14750276 -98 207 C-97.34 207 -96.68 207 -96 207 C-95.814375 206.34 -95.62875 205.68 -95.4375 205 C-93.76558486 201.5107858 -91.64172412 199.15242829 -89.05859375 196.30078125 C-83.2491687 189.80789443 -77.89442652 182.91081269 -72.57421875 176.015625 C-70.44476973 173.28908482 -68.23453997 170.64081996 -66 168 C-71.2729991 158.14178429 -77.9517617 149.11805756 -85.01953125 140.484375 C-87.87109381 136.90726694 -90.50392852 133.18244842 -93.140625 129.4453125 C-96.67886383 124.498801 -96.67886383 124.498801 -102.19854736 122.50552368 C-103.46237244 122.50837372 -104.72619751 122.51122375 -106.02832031 122.51416016 C-107.07793694 122.50846512 -107.07793694 122.50846512 -108.14875793 122.50265503 C-110.45900513 122.49525439 -112.76798973 122.51663174 -115.078125 122.5390625 C-116.68991956 122.54144844 -118.30171694 122.54235193 -119.91351318 122.5418396 C-123.29294233 122.5449673 -126.67194717 122.56152316 -130.05126953 122.58837891 C-134.36634449 122.62224967 -138.68095103 122.63001041 -142.99614334 122.62848854 C-146.32662362 122.62903478 -149.65700309 122.64004422 -152.98744965 122.65449142 C-154.57733142 122.66082341 -156.16722454 122.66478982 -157.75711823 122.66627884 C-159.98963985 122.67065671 -162.2216841 122.68825501 -164.45410156 122.70947266 C-165.72110901 122.71709625 -166.98811646 122.72471985 -168.29351807 122.73257446 C-176.35701154 123.31436175 -184.48076649 125.48076649 -190.3125 131.3125 C-192.2880527 134.4587506 -193.64424168 137.54281628 -195 141 C-195.99 141 -196.98 141 -198 141 C-198.33 134.73 -198.66 128.46 -199 122 C-224.74 122 -250.48 122 -277 122 C-277.33 127.94 -277.66 133.88 -278 140 C-279.32 140 -280.64 140 -282 140 C-282.33 138.02 -282.66 136.04 -283 134 C-283.66 134 -284.32 134 -285 134 C-285.598125 133.0925 -286.19625 132.185 -286.8125 131.25 C-290.06964242 126.41081697 -293.5210355 123.86284793 -299 122 C-301.0959986 121.72123482 -303.20262611 121.51411256 -305.3125 121.375 C-306.38113281 121.30023438 -307.44976562 121.22546875 -308.55078125 121.1484375 C-309.76314453 121.07496094 -309.76314453 121.07496094 -311 121 C-310.44403241 117.38229542 -309.28895556 116.09589885 -306.4375 113.875 C-298.88781607 107.51808481 -292.25240332 99.82298114 -290 90 C-289.62611424 85.10832801 -290.19593374 82.0567728 -293.1875 78.125 C-303.53837796 70.30433665 -316.78871478 70.54388102 -329.20703125 71.515625 C-332.19899062 71.84061929 -332.19899062 71.84061929 -335 74 C-335.80541207 77.10811287 -335.80541207 77.10811287 -336.1875 80.625 C-336.34605469 81.81351562 -336.50460937 83.00203125 -336.66796875 84.2265625 C-336.77753906 85.14179688 -336.88710938 86.05703125 -337 87 C-340.76591888 85.31934199 -342.1379634 83.72407321 -344 80 C-344 79.34 -344 78.68 -344 78 C-344.66 78 -345.32 78 -346 78 C-349.86840066 70.10201532 -350.232742 61.37471991 -348.56640625 52.7578125 C-345.89312443 45.55157456 -338.8130084 38.44698897 -332 35 C-318.89226519 30 -318.89226519 30 -315 30 C-315.144375 29.175 -315.28875 28.35 -315.4375 27.5 C-314.65647334 21.25178674 -309.89695913 17.59517017 -305.25 13.6875 C-300.6826084 11.31596974 -295.97556501 10.22565238 -291 9 C-289.824375 8.62875 -288.64875 8.2575 -287.4375 7.875 C-278.12988942 5.50579003 -268.41863852 5.79576029 -258.875 5.8125 C-257.84270264 5.81390488 -257.84270264 5.81390488 -256.78955078 5.81533813 C-236.86015595 5.87418249 -217.19038153 6.57060098 -202 21 C-201.44441406 21.50144531 -200.88882813 22.00289062 -200.31640625 22.51953125 C-198.04154797 24.65261366 -197.00356925 25.98929225 -196 29 C-195.01 29.33 -194.02 29.66 -193 30 C-191.95646091 31.69575102 -190.92062336 33.39898384 -189.984375 35.15625 C-189.14510083 36.72822383 -188.20670593 38.24660497 -187.25 39.75 C-186 42 -186 42 -186 45 C-185.34 45 -184.68 45 -184 45 C-183.34 47.31 -182.68 49.62 -182 52 C-182.99 52.495 -182.99 52.495 -184 53 C-185.9453125 52.07421875 -185.9453125 52.07421875 -188.125 50.6875 C-189.21167969 50.01267578 -189.21167969 50.01267578 -190.3203125 49.32421875 C-191.15175781 48.66873047 -191.15175781 48.66873047 -192 48 C-192 47.34 -192 46.68 -192 46 C-193.65 45.67 -195.3 45.34 -197 45 C-196.566875 45.55429688 -196.13375 46.10859375 -195.6875 46.6796875 C-195.130625 47.40414062 -194.57375 48.12859375 -194 48.875 C-193.443125 49.59429687 -192.88625 50.31359375 -192.3125 51.0546875 C-191 53 -191 53 -191 55 C-190.34 55 -189.68 55 -189 55 C-183.140625 66.71875 -183.140625 66.71875 -182.07495117 68.85327148 C-181.34931909 70.30239319 -180.62022876 71.74978764 -179.88793945 73.19555664 C-179.5343335 73.89543701 -179.18072754 74.59531738 -178.81640625 75.31640625 C-178.49873291 75.94232666 -178.18105957 76.56824707 -177.85375977 77.21313477 C-174.88099664 83.43494013 -174.89070981 88.38923006 -176 95 C-179.66060821 94.41463247 -181.54535164 92.916761 -184.25 90.4375 C-184.95640625 89.79683594 -185.6628125 89.15617187 -186.390625 88.49609375 C-187.18726563 87.75552734 -187.18726563 87.75552734 -188 87 C-187.1890436 89.29222362 -186.37630612 91.58378828 -185.5625 93.875 C-185.33240234 94.52597656 -185.10230469 95.17695313 -184.86523438 95.84765625 C-183.57839884 99.48434022 -183.57839884 99.48434022 -182 103 C-181.45472656 102.69707031 -180.90945313 102.39414063 -180.34765625 102.08203125 C-178.76263917 101.2014662 -177.17663128 100.32268317 -175.58984375 99.4453125 C-173.88705807 98.49503995 -172.19142657 97.53181194 -170.50390625 96.5546875 C-169.32634766 95.87792969 -169.32634766 95.87792969 -168.125 95.1875 C-167.40570313 94.76855469 -166.68640625 94.34960938 -165.9453125 93.91796875 C-164 93 -164 93 -161 93 C-161 92.34 -161 91.68 -161 91 C-160.030625 90.52691406 -159.06125 90.05382812 -158.0625 89.56640625 C-150.93146648 86.05839783 -143.89837747 82.4480472 -137 78.5 C-131.24747721 75.21424053 -125.42782749 72.15296712 -119.4855957 69.22607422 C-110.53388905 64.8066731 -101.70862336 60.14258342 -92.86865234 55.50488281 C-90.09699412 54.0508827 -87.32397842 52.59949965 -84.55078125 51.1484375 C-82.86708197 50.26582629 -81.18348296 49.38302376 -79.5 48.5 C-78.74162842 48.10312988 -77.98325684 47.70625977 -77.2019043 47.29736328 C-72.74502585 44.95438163 -68.35928552 42.52005317 -64 40 C-61.95833333 38.83333333 -59.91666667 37.66666667 -57.875 36.5 C-57.29081299 36.16524658 -56.70662598 35.83049316 -56.10473633 35.4855957 C-52.41817533 33.37473842 -48.72308773 31.28013028 -45.01953125 29.19921875 C-21.18005374 16.50873028 -21.18005374 16.50873028 0 0 Z M-296 29 C-292.15014243 33.06373855 -289.66264986 35.66540776 -284.046875 36.37109375 C-277.63282841 36.50028663 -273.14458231 36.51175344 -268.171875 32.19140625 C-262.08097997 28.85017786 -253.23811307 29.74185612 -246.4375 29.4375 C-245.06754883 29.37272461 -245.06754883 29.37272461 -243.66992188 29.30664062 C-241.44672009 29.20188243 -239.22343293 29.09970983 -237 29 C-237 28.67 -237 28.34 -237 28 C-245.15420457 26.86723618 -253.21896539 26.80454294 -261.4375 26.8125 C-262.19512634 26.8117749 -262.95275269 26.8110498 -263.7333374 26.81030273 C-274.60876305 26.81145647 -285.25408355 27.13693089 -296 29 Z M-300.625 59.375 C-302.13126953 59.46007812 -302.13126953 59.46007812 -303.66796875 59.546875 C-306.11288737 59.68658464 -308.55648947 59.83778322 -311 60 C-311 60.33 -311 60.66 -311 61 C-306.4585881 61.33686543 -301.9168335 61.66887125 -297.375 62 C-296.08980469 62.09539062 -294.80460937 62.19078125 -293.48046875 62.2890625 C-292.23652344 62.37929687 -290.99257813 62.46953125 -289.7109375 62.5625 C-287.99849854 62.68818359 -287.99849854 62.68818359 -286.25146484 62.81640625 C-283.15908432 62.99101731 -280.09646463 63.03281022 -277 63 C-282.63851444 57.36148556 -293.29547544 58.88571265 -300.625 59.375 Z M-276 63 C-275.34 63.66 -274.68 64.32 -274 65 C-274 64.34 -274 63.68 -274 63 C-274.66 63 -275.32 63 -276 63 Z " fill="#FFFFFF" transform="translate(490,81)"/>
<path d="M0 0 C3.91210326 0.57957085 5.97866829 2.55416004 9 5 C14.25498434 7.89560361 18.38448748 9.08283267 24.33984375 9.31640625 C25.39381348 9.35838135 26.4477832 9.40035645 27.53369141 9.44360352 C28.65694824 9.48283936 29.78020508 9.5220752 30.9375 9.5625 C32.66105713 9.62618774 32.66105713 9.62618774 34.41943359 9.69116211 C44.94882045 10.05231499 55.46597833 10.10064352 66 10 C65.63238619 12.47738319 65.38558085 13.67972829 63.42456055 15.30859375 C62.41582886 15.86740234 62.41582886 15.86740234 61.38671875 16.4375 C60.26523437 17.06470947 60.26523437 17.06470947 59.12109375 17.70458984 C58.31800781 18.1320752 57.51492188 18.55956055 56.6875 19 C55.87023437 19.44424316 55.05296875 19.88848633 54.2109375 20.34619141 C48.84756398 23.19574753 43.5428148 25.48255432 37.703125 27.1953125 C33.35062104 28.4910001 29.18947872 30.25747345 25 32 C27.12245714 33.98195646 29.24780268 35.96064257 31.375 37.9375 C31.97828125 38.50146484 32.5815625 39.06542969 33.203125 39.64648438 C33.78320312 40.18466797 34.36328125 40.72285156 34.9609375 41.27734375 C35.49509277 41.77484131 36.02924805 42.27233887 36.57958984 42.78491211 C38.0045475 44.10293508 38.0045475 44.10293508 40 45 C40 45.66 40 46.32 40 47 C40.928125 47.4640625 40.928125 47.4640625 41.875 47.9375 C43.25 48.625 44.625 49.3125 46 50 C46 50.66 46 51.32 46 52 C46.7425 52.25652344 47.485 52.51304687 48.25 52.77734375 C51.12618958 54.05610417 52.75003859 55.38724434 55 57.5625 C60.57426925 62.67455787 66.73224566 66.80429151 73 71 C74.48886719 72.02287109 74.48886719 72.02287109 76.0078125 73.06640625 C89.75193953 82.52791589 89.75193953 82.52791589 105 89 C105 89.99 105 90.98 105 92 C82.91917621 98.90796722 60.80306522 97.36041983 40 87 C32.43037784 82.99106044 25.21831201 78.62820204 18.265625 73.609375 C14.93791017 71.24554998 11.48218025 69.12799904 8 67 C8 67.66 8 68.32 8 69 C8.59224365 69.2693335 9.1844873 69.53866699 9.79467773 69.81616211 C11.99725642 70.99852722 13.49350061 72.21205972 15.28515625 73.94140625 C15.89254639 74.52059814 16.49993652 75.09979004 17.12573242 75.6965332 C17.76486572 76.31230225 18.40399902 76.92807129 19.0625 77.5625 C25.15869259 83.33904205 31.36814201 88.83759159 38 94 C39.48113281 95.15628906 39.48113281 95.15628906 40.9921875 96.3359375 C46.53820542 100.58365097 52.07733837 104.40007818 58.234375 107.7109375 C58.81703125 108.13632812 59.3996875 108.56171875 60 109 C60 109.99 60 110.98 60 112 C44.5743391 116.2966652 28.92510627 112.49863341 15.04296875 105.51171875 C9.28789912 102.23194789 4.13952209 98.15815665 -1 94 C-2.010625 93.236875 -3.02125 92.47375 -4.0625 91.6875 C-4.701875 91.130625 -5.34125 90.57375 -6 90 C-6 89.34 -6 88.68 -6 88 C-6.55268555 87.77328613 -7.10537109 87.54657227 -7.67480469 87.31298828 C-10.68883384 85.6110302 -12.76980213 83.45380482 -15.203125 80.9921875 C-15.6857782 80.50670441 -16.1684314 80.02122131 -16.66571045 79.52102661 C-18.19858562 77.97700134 -19.72434004 76.42615176 -21.25 74.875 C-22.29120361 73.82375991 -23.33286541 72.77297343 -24.375 71.72265625 C-26.92199464 69.15366996 -29.46265177 66.57851839 -32 64 C-31.34 65.98 -30.68 67.96 -30 70 C-29.34 70 -28.68 70 -28 70 C-26.7734375 71.58203125 -26.7734375 71.58203125 -25.375 73.8125 C-20.37600155 81.56155873 -14.99097628 88.98617411 -9 96 C-8.29746094 96.87914062 -7.59492188 97.75828125 -6.87109375 98.6640625 C-6.08863281 99.64117187 -5.30617188 100.61828125 -4.5 101.625 C-3.7678125 102.54539062 -3.035625 103.46578125 -2.28125 104.4140625 C-0.07646302 107.08967885 -0.07646302 107.08967885 2.78125 109.0859375 C3.5134375 109.71757812 4.245625 110.34921875 5 111 C5 112.32 5 113.64 5 115 C-8.74786321 116.09496256 -23.0584869 110.1213573 -33.86328125 101.79296875 C-36.32580907 99.59948798 -38.67472474 97.33770989 -41 95 C-42.03833984 94.03320312 -42.03833984 94.03320312 -43.09765625 93.046875 C-46.37801342 89.94838568 -48.77756051 87.48227812 -50 83 C-50.66 83 -51.32 83 -52 83 C-53.2265625 81.19921875 -53.2265625 81.19921875 -54.625 78.6875 C-59.24980986 70.72694708 -64.36248248 63.40744759 -71 57 C-69.02056102 61.24960805 -67.03775678 65.49762621 -65.05273438 69.74462891 C-63.98579767 72.03042699 -62.92254258 74.31791555 -61.859375 76.60546875 C-61.15638296 78.11204121 -60.45326099 79.61855306 -59.75 81.125 C-59.42128906 81.83454834 -59.09257812 82.54409668 -58.75390625 83.27514648 C-57.37116313 86.23005442 -55.98460747 89.02489153 -54.265625 91.8046875 C-53 94 -53 94 -53 97 C-52.34 97 -51.68 97 -51 97 C-51 97.99 -51 98.98 -51 100 C-64.89055274 97.51691004 -80.80080926 88.72170213 -89.03515625 77.13671875 C-89.68355469 76.10160156 -90.33195312 75.06648438 -91 74 C-92.50338558 71.75886646 -94.03417914 69.53668364 -95.5625 67.3125 C-95.94857422 66.74466797 -96.33464844 66.17683594 -96.73242188 65.59179688 C-98.24109475 63.39946645 -99.69934952 61.29917308 -101.58984375 59.41796875 C-103 58 -103 58 -104.375 55.640625 C-110.47957743 45.72068667 -122.00936888 36.741964 -131.6875 30.5625 C-132.450625 30.046875 -133.21375 29.53125 -134 29 C-134 28.34 -134 27.68 -134 27 C-134.54527344 26.76410156 -135.09054688 26.52820313 -135.65234375 26.28515625 C-139.66892739 24.08639416 -142.96066323 20.94787718 -146.44140625 17.99609375 C-148.90244819 15.84684308 -148.90244819 15.84684308 -152 15 C-152.33 14.01 -152.66 13.02 -153 12 C-151.3152371 10.3152371 -149.22167716 10.8680933 -146.91130066 10.86196899 C-145.25662781 10.85378899 -145.25662781 10.85378899 -143.56852722 10.84544373 C-142.34732681 10.8444014 -141.1261264 10.84335907 -139.86791992 10.84228516 C-137.90580399 10.8344853 -135.94368806 10.82668142 -133.98157275 10.81872725 C-131.86438163 10.81099728 -129.7471949 10.80562335 -127.62999535 10.80076981 C-123.21172988 10.79009451 -118.79354117 10.76984621 -114.37532043 10.74765015 C-101.8082739 10.68572541 -89.24122975 10.63186084 -76.67407227 10.59863281 C-69.7392331 10.58021611 -62.80452058 10.55118356 -55.86977464 10.5106281 C-52.20290217 10.48965785 -48.53618871 10.47411531 -44.86925316 10.47182083 C-40.76446656 10.46924984 -36.66011758 10.44366676 -32.55541992 10.41650391 C-31.35648605 10.41951004 -30.15755219 10.42251617 -28.92228699 10.4256134 C-20.32629484 10.34153578 -10.29598759 10.06656192 -3.3125 4.4375 C-0.99393413 2.23050295 -0.99393413 2.23050295 0 0 Z M-74 52 C-74 52.66 -74 53.32 -74 54 C-73.34 53.67 -72.68 53.34 -72 53 C-72.66 52.67 -73.32 52.34 -74 52 Z " fill="#FFFFFF" transform="translate(296,299)"/>
<path d="M0 0 C5.14096755 -0.19865521 10.27967564 -0.34333226 15.42358398 -0.43945312 C17.17072485 -0.47953925 18.91759974 -0.53402743 20.66381836 -0.60351562 C35.13918656 -1.16486438 35.13918656 -1.16486438 39.63134766 1.6472168 C41.43420742 3.67834994 42.72898595 5.6072037 44 8 C44.62390625 8.87269531 45.2478125 9.74539062 45.890625 10.64453125 C46.33921875 11.35996094 46.7878125 12.07539063 47.25 12.8125 C49.11817033 15.77799079 49.11817033 15.77799079 51.41015625 18.40625 C53.63039596 20.63194485 55.3560296 23.13545109 57.1875 25.6875 C57.90292969 26.68136719 58.61835937 27.67523438 59.35546875 28.69921875 C59.89816406 29.45847656 60.44085938 30.21773437 61 31 C63.29113732 28.8092961 64.6975667 26.90542812 66 24 C66.66 24 67.32 24 68 24 C68.21914062 23.319375 68.43828125 22.63875 68.6640625 21.9375 C70.38811561 18.14659959 72.76165332 15.21854276 75.375 12 C75.85710937 11.39671875 76.33921875 10.7934375 76.8359375 10.171875 C77.74390497 9.03691566 78.65424108 7.90384355 79.56787109 6.7734375 C81.131215 4.91825548 81.131215 4.91825548 82.62646484 2.31958008 C85.48142586 -0.47048211 87.3324663 -0.56842643 91.24688721 -0.56648254 C92.46272491 -0.5277729 92.46272491 -0.5277729 93.703125 -0.48828125 C94.54091492 -0.48120651 95.37870483 -0.47413177 96.24188232 -0.46684265 C98.91217147 -0.43890066 101.58034708 -0.37616613 104.25 -0.3125 C106.06246967 -0.28741671 107.87497228 -0.26460359 109.6875 -0.24414062 C114.12581171 -0.18907504 118.56254781 -0.10280667 123 0 C123 0.66 123 1.32 123 2 C122.34 2 121.68 2 121 2 C120.5359375 2.928125 120.5359375 2.928125 120.0625 3.875 C119.375 5.25 118.6875 6.625 118 8 C117.34 8 116.68 8 116 8 C115.75121094 8.55816406 115.50242187 9.11632812 115.24609375 9.69140625 C113.78385602 12.4004423 112.03155987 14.5696432 110.0625 16.9375 C108.85787109 18.38962891 108.85787109 18.38962891 107.62890625 19.87109375 C104.46835429 23.64113822 101.28813476 27.39456511 98.10351562 31.14428711 C92.28620729 38.00171545 86.60990271 44.97193396 81 52 C82.98559502 55.57407103 85.11963212 58.13004936 88 61 C92.99369544 66.86136157 97.74721067 72.91922832 102.44921875 79.015625 C103.7855841 80.72563406 105.16979876 82.39805217 106.5625 84.0625 C108.50046717 86.39799889 110.3388253 88.75313076 112.15234375 91.18359375 C112.68722412 91.8995874 113.22210449 92.61558105 113.77319336 93.35327148 C114.17803955 93.89669189 114.58288574 94.4401123 115 95 C115.0093457 94.16339844 115.01869141 93.32679688 115.02832031 92.46484375 C115.0726418 89.32583985 115.13439195 86.18777132 115.20751953 83.04931641 C115.24923272 81.0370146 115.27128531 79.02433605 115.29296875 77.01171875 C115.47840865 69.63121074 115.76750865 64.16375051 120 58 C128.61595843 50.39673817 143.09585499 47.63653361 153.82958984 44.05615234 C156.59759596 43.12903934 159.36128703 42.18981808 162.125 41.25 C162.98407959 40.96842041 163.84315918 40.68684082 164.72827148 40.39672852 C165.52177002 40.12658936 166.31526855 39.8564502 167.1328125 39.578125 C167.83293457 39.34512695 168.53305664 39.11212891 169.25439453 38.87207031 C171.35717455 38.00203777 171.35717455 38.00203777 173 35 C173.34222445 30.34582831 173.34222445 30.34582831 172 26 C168.03069011 25.97534119 164.06140966 25.95715977 160.09204102 25.94506836 C158.74079614 25.94002943 157.38955674 25.93319823 156.03833008 25.92456055 C154.09979566 25.91247581 152.161222 25.90730172 150.22265625 25.90234375 C149.05484619 25.89710693 147.88703613 25.89187012 146.68383789 25.88647461 C144.08108449 25.69338505 144.08108449 25.69338505 143 27 C142.67 29.31 142.34 31.62 142 34 C133.42 34 124.84 34 116 34 C115.23433549 15.7771846 115.23433549 15.7771846 121 9 C125.12995414 4.66307777 129.31028504 1.40346366 135.44563293 0.73257446 C136.29864487 0.72495087 137.1516568 0.71732727 138.03051758 0.70947266 C139.49277519 0.6903331 139.49277519 0.6903331 140.98457336 0.67080688 C142.02735947 0.66858124 143.07014557 0.66635559 144.14453125 0.6640625 C145.77016243 0.6540773 145.77016243 0.6540773 147.42863464 0.64389038 C149.71908881 0.63377718 152.00957236 0.62907295 154.30004883 0.62939453 C157.78972411 0.6250285 161.27812704 0.58871274 164.76757812 0.55078125 C166.99739153 0.54491129 169.22721091 0.5409431 171.45703125 0.5390625 C173.01210136 0.51750595 173.01210136 0.51750595 174.59858704 0.49551392 C182.11474672 0.54250073 187.45897 2.00801472 193.2421875 6.89453125 C193.78101563 7.52746094 194.31984375 8.16039062 194.875 8.8125 C195.70644531 9.75029297 195.70644531 9.75029297 196.5546875 10.70703125 C202.34321718 19.89045537 201.15117789 34.27508104 199.3828125 44.60546875 C197.31786957 51.22973258 193.98814959 54.68141658 188 58 C180.68507337 61.31030868 173.02777902 63.67560558 165.375 66.0625 C156.82858936 68.71287849 156.82858936 68.71287849 148.4140625 71.74609375 C145 73 145 73 142 73 C142 74.98 142 76.96 142 79 C142.71187973 78.99777939 143.42375946 78.99555878 144.1572113 78.99327087 C150.85274235 78.97326747 157.54826511 78.95802562 164.24381924 78.94818783 C167.68640348 78.94296018 171.12896312 78.93586469 174.5715332 78.92456055 C178.52555043 78.91165765 182.47955756 78.90677082 186.43359375 78.90234375 C188.29605995 78.89460182 188.29605995 78.89460182 190.19615173 78.88670349 C191.90781273 78.88659019 191.90781273 78.88659019 193.65405273 78.88647461 C194.664431 78.884254 195.67480927 78.88203339 196.71580505 78.87974548 C199 79 199 79 200 80 C200.09932153 81.69558726 200.13080007 83.39525747 200.1328125 85.09375 C200.13410156 86.12371094 200.13539063 87.15367187 200.13671875 88.21484375 C200.13285156 89.29894531 200.12898437 90.38304687 200.125 91.5 C200.12886719 92.58410156 200.13273438 93.66820312 200.13671875 94.78515625 C200.13478516 96.33009766 200.13478516 96.33009766 200.1328125 97.90625 C200.13168457 98.85822266 200.13055664 99.81019531 200.12939453 100.79101562 C200 103 200 103 199 104 C196.35275065 104.12524218 193.73032991 104.18608535 191.08154297 104.20532227 C190.2502739 104.21522186 189.41900482 104.22512146 188.56254578 104.23532104 C185.78912257 104.26711594 183.01568315 104.29180544 180.2421875 104.31640625 C178.30330997 104.3370019 176.36443666 104.35799902 174.42556763 104.37937927 C170.33809793 104.42346117 166.25061339 104.46433678 162.16308594 104.50268555 C156.99119177 104.55121686 151.81936965 104.60489826 146.64754868 104.66063881 C134.43183539 104.79219977 122.21604564 104.90440204 110 105 C109.28153397 105.0058889 108.56306793 105.0117778 107.8228302 105.01784515 C103.80116634 105.0505491 99.77957778 105.07435121 95.7578125 105.08984375 C94.40113968 105.09994225 94.40113968 105.09994225 93.01705933 105.11024475 C87.23392823 105.11696411 87.23392823 105.11696411 85 104 C85 103.34 85 102.68 85 102 C84.38125 101.7525 83.7625 101.505 83.125 101.25 C80.5927804 99.76045906 80.19281342 98.62418952 79 96 C78.58878906 95.59523438 78.17757812 95.19046875 77.75390625 94.7734375 C75.24642352 92.2380318 73.15334544 89.39668261 71 86.5625 C70.56171875 85.98951172 70.1234375 85.41652344 69.671875 84.82617188 C68.44459157 83.21998317 67.22214805 81.61009966 66 80 C65.401875 79.24589844 64.80375 78.49179687 64.1875 77.71484375 C63 76 63 76 63 74 C61.05000871 74.19471111 61.05000871 74.19471111 59 75 C57.8499169 76.96672915 57.8499169 76.96672915 57 79 C56.01 79.495 56.01 79.495 55 80 C53.97642776 81.65229466 52.98218164 83.32277103 52 85 C50.39666451 87.36384696 48.72987847 89.68103084 47.0625 92 C46.63259766 92.60328125 46.20269531 93.2065625 45.75976562 93.828125 C38.73788103 103.63105948 38.73788103 103.63105948 36 105 C33.30106819 105.08675538 30.62830769 105.11557897 27.9296875 105.09765625 C26.73534592 105.09553383 26.73534592 105.09553383 25.51687622 105.09336853 C22.9695462 105.08776345 20.42230353 105.07521014 17.875 105.0625 C16.14974085 105.05748565 14.42448033 105.05292263 12.69921875 105.04882812 C8.46611209 105.03779237 4.23307086 105.02052436 0 105 C0 102 0 102 2.25 99.625 C3.1575 98.75875 4.065 97.8925 5 97 C6.34962783 95.34650059 7.68155661 93.67847031 9 92 C14.59020127 85.04381526 20.35873461 78.28559089 26.24707031 71.58227539 C30.33619133 66.88075349 34.00650394 62.03539998 37.51171875 56.87890625 C38.00285156 56.25886719 38.49398437 55.63882813 39 55 C39.66 55 40.32 55 41 55 C40.47747513 50.9398405 39.41962755 48.90310687 36.625 45.9375 C30 38.81914894 30 38.81914894 30 36 C29.401875 35.773125 28.80375 35.54625 28.1875 35.3125 C25.40167272 33.64100363 24.62462768 31.7943596 23 29 C22.13375 28.13375 21.2675 27.2675 20.375 26.375 C18 24 18 24 17 21 C16.34 21 15.68 21 15 21 C13.48015117 19.32464541 12.03293547 17.58294378 10.625 15.8125 C9.85414062 14.84957031 9.08328125 13.88664063 8.2890625 12.89453125 C6.79423443 11.0043135 5.3093658 9.10616477 3.8359375 7.19921875 C2.18823063 4.92744075 2.18823063 4.92744075 0 4 C0 2.68 0 1.36 0 0 Z " fill="#FFFFFF" transform="translate(6,202)"/>
<path d="M0 0 C1.06863785 -0.0159874 2.1372757 -0.03197479 3.23829651 -0.04844666 C4.9726017 -0.05649071 4.9726017 -0.05649071 6.74194336 -0.06469727 C7.93476425 -0.07372574 9.12758514 -0.08275421 10.35655212 -0.09205627 C12.88595057 -0.10658029 15.41538677 -0.11545083 17.94482422 -0.11914062 C21.79256842 -0.13098281 25.63868096 -0.18010541 29.48608398 -0.23071289 C31.94636264 -0.2401834 34.40665113 -0.24741543 36.86694336 -0.25219727 C38.0089772 -0.27172958 39.15101105 -0.2912619 40.32765198 -0.31138611 C49.09142194 -0.26255172 56.07545194 1.61256131 62.39428711 7.93139648 C63.76928711 10.30639648 63.76928711 10.30639648 63.76928711 13.30639648 C64.42928711 13.30639648 65.08928711 13.30639648 65.76928711 13.30639648 C66.87593508 16.6263404 66.92325688 19.15643741 66.9621582 22.65454102 C66.97822113 23.96665558 66.99428406 25.27877014 67.01083374 26.63064575 C67.02232447 28.06682687 67.03293245 29.50301528 67.04272461 30.93920898 C67.04804829 31.66440609 67.05337196 32.3896032 67.05885696 33.13677597 C67.08557229 36.97911267 67.10494789 40.82141714 67.11938477 44.66381836 C67.13269373 47.8317573 67.16049071 50.99904746 67.20141602 54.16674805 C67.25096196 58.00229934 67.2755328 61.83726482 67.28261185 65.67312241 C67.28928989 67.12827833 67.30442143 68.58342295 67.32850266 70.03839493 C67.49030248 80.41021572 66.27225565 87.37457379 59.14428711 95.18139648 C49.24585327 101.41374371 37.88883405 100.774002 26.59936523 100.69750977 C23.77530611 100.68143075 20.95267775 100.69741851 18.12866211 100.71655273 C-6.01024792 100.74396003 -6.01024792 100.74396003 -14.23071289 93.30639648 C-20.34258445 85.79044916 -19.88433932 77.51894058 -19.71899414 68.33374023 C-19.70965208 66.79961812 -19.70254256 65.26548095 -19.69755554 63.7313385 C-19.67859475 59.72134174 -19.62959154 55.71227113 -19.57403564 51.70263672 C-19.52260477 47.59998091 -19.499991 43.49717336 -19.47485352 39.39428711 C-19.42145929 31.36456835 -19.33628279 23.33559809 -19.23071289 15.30639648 C-18.57071289 15.30639648 -17.91071289 15.30639648 -17.23071289 15.30639648 C-17.23071289 14.46077148 -17.23071289 13.61514648 -17.23071289 12.74389648 C-15.14771059 5.58357609 -7.31556177 0.08278279 0 0 Z M7.09539795 24.55516052 C5.422924 26.76379681 5.39475392 27.96239268 5.39697266 30.71435547 C5.39074387 31.60215195 5.38451508 32.48994843 5.37809753 33.40464783 C5.38730728 34.36093582 5.39651703 35.31722382 5.40600586 36.30249023 C5.40550735 37.28758072 5.40500885 38.2726712 5.40449524 39.28761292 C5.40683625 41.37144995 5.41656632 43.45528978 5.43310547 45.5390625 C5.45666995 48.72804078 5.45366994 51.91618155 5.44702148 55.10522461 C5.45259921 57.12931813 5.45970968 59.15340814 5.46850586 61.17749023 C5.46759445 62.131754 5.46668304 63.08601776 5.46574402 64.06919861 C5.47527603 64.96014725 5.48480804 65.85109589 5.49462891 66.76904297 C5.4992363 67.55053207 5.50384369 68.33202118 5.5085907 69.13719177 C5.79969999 71.55945624 6.56409603 73.20165771 7.76928711 75.30639648 C12.28994139 75.35577348 16.81043928 75.39210471 21.33129883 75.41625977 C22.86973809 75.42632766 24.40815818 75.43998295 25.9465332 75.45727539 C28.15572844 75.48148965 30.36467106 75.49287139 32.57397461 75.50170898 C33.60843216 75.51719284 33.60843216 75.51719284 34.66378784 75.5329895 C36.36729617 75.53339127 38.07014654 75.42830674 39.76928711 75.30639648 C42.22489868 72.85078491 42.02154279 72.18540038 42.02807617 68.8125 C42.03438049 67.8813588 42.04068481 66.95021759 42.04718018 65.99085999 C42.04313171 64.98252609 42.03908325 63.9741922 42.03491211 62.93530273 C42.03682556 61.90203354 42.03873901 60.86876434 42.04071045 59.80418396 C42.0420732 57.61603553 42.03837054 55.42787905 42.0300293 53.23974609 C42.01934202 49.88612721 42.02991614 46.53304537 42.04272461 43.17944336 C42.04140282 41.0563953 42.03884002 38.93334757 42.03491211 36.81030273 C42.03896057 35.80399307 42.04300903 34.79768341 42.04718018 33.76087952 C42.04087585 32.82658615 42.03457153 31.89229279 42.02807617 30.9296875 C42.02648499 30.10743179 42.0248938 29.28517609 42.02325439 28.43800354 C41.89665446 26.00738289 41.89665446 26.00738289 39.76928711 23.30639648 C36.61668334 22.83798547 36.61668334 22.83798547 32.89819336 22.90795898 C32.22006088 22.90508881 31.54192841 22.90221863 30.84324646 22.89926147 C29.40834723 22.89721927 27.97342026 22.90276021 26.53857422 22.9152832 C24.34335882 22.93131199 22.14999132 22.91545494 19.95483398 22.89624023 C18.56094971 22.89822313 17.16706659 22.90206776 15.77319336 22.90795898 C14.50290283 22.91134277 13.2326123 22.91472656 11.92382812 22.91821289 C8.84841677 23.03215437 8.84841677 23.03215437 7.09539795 24.55516052 Z " fill="#FFFFFF" transform="translate(318.230712890625,205.693603515625)"/>
<path d="M0 0 C2.86001587 -0.36076355 2.86001587 -0.36076355 6.56103516 -0.34057617 C7.57096779 -0.34123329 7.57096779 -0.34123329 8.6013031 -0.34190369 C10.83084938 -0.33981056 13.05964731 -0.3164562 15.2890625 -0.29296875 C16.83319691 -0.28737463 18.37733664 -0.28310366 19.92147827 -0.28010559 C23.98883727 -0.26864226 28.05587571 -0.23916262 32.12310791 -0.20599365 C36.27213199 -0.17532462 40.42120778 -0.16160706 44.5703125 -0.14648438 C52.71370529 -0.11429398 60.85677586 -0.06151424 69 0 C69 7.59 69 15.18 69 23 C52.83 23 36.66 23 20 23 C20 25.97 20 28.94 20 32 C21.15935059 31.9685791 22.31870117 31.9371582 23.51318359 31.90478516 C27.85534366 31.79537057 32.1973845 31.72701063 36.54052734 31.67041016 C38.41248126 31.6404202 40.28429684 31.59961313 42.15576172 31.54736328 C60.88708516 31.03787128 60.88708516 31.03787128 68.53759766 36.50537109 C70 38 70 38 70 40 C70.66 40 71.32 40 72 40 C75.39750196 47.70100444 75.21617042 55.43468238 75.24023438 63.72070312 C75.24990806 65.73089502 75.28097135 67.74004857 75.3125 69.75 C75.37853913 86.32582269 75.37853913 86.32582269 70.6809082 92.82495117 C62.38814097 101.08769481 49.1646491 100.44597809 38.26367188 100.45898438 C36.94967407 100.45257935 36.94967407 100.45257935 35.60913086 100.44604492 C32.9385132 100.43750324 30.27001884 100.46644005 27.59960938 100.49804688 C16.96597825 100.54085483 8.53138788 99.61310819 -0.9375 94.375 C-5.24093606 89.41952817 -7.2290239 83.46950449 -7.3125 76.9375 C-7 73 -7 73 -6 72 C-4.29227642 71.91286169 -2.58101351 71.89299993 -0.87109375 71.90234375 C0.68061523 71.90717773 0.68061523 71.90717773 2.26367188 71.91210938 C3.35228516 71.92048828 4.44089844 71.92886719 5.5625 71.9375 C7.2012207 71.94426758 7.2012207 71.94426758 8.87304688 71.95117188 C11.58208495 71.96300174 14.29101599 71.97948457 17 72 C17.33 73.32 17.66 74.64 18 76 C22.09362106 75.8818344 26.18700767 75.75759216 30.28027344 75.62768555 C31.6731259 75.58434154 33.06603131 75.54266604 34.45898438 75.50268555 C36.45976651 75.44497068 38.46035859 75.38078131 40.4609375 75.31640625 C41.66540527 75.27974854 42.86987305 75.24309082 44.11083984 75.20532227 C46.93996367 75.18947013 46.93996367 75.18947013 49 74 C49.02683987 71.02077407 49.04676037 68.04178705 49.0625 65.0625 C49.07506836 63.78729492 49.07506836 63.78729492 49.08789062 62.48632812 C49.09111328 61.67744141 49.09433594 60.86855469 49.09765625 60.03515625 C49.10289307 59.2862915 49.10812988 58.53742676 49.11352539 57.76586914 C49.19341752 55.97332261 49.19341752 55.97332261 48 55 C46.34355634 54.87709282 44.68201007 54.82216092 43.02124023 54.79467773 C41.42970375 54.7647599 41.42970375 54.7647599 39.80601501 54.73423767 C38.651866 54.71752518 37.49771698 54.70081268 36.30859375 54.68359375 C35.13361832 54.66281265 33.95864288 54.64203156 32.74806213 54.62062073 C28.97793676 54.55499876 25.20773918 54.4961817 21.4375 54.4375 C18.88866427 54.3943268 16.33983597 54.35071292 13.79101562 54.30664062 C7.52742108 54.19930455 1.26375399 54.0975621 -5 54 C-5.06920723 47.06369286 -4.92167723 40.19886809 -4.4140625 33.28125 C-4.32129532 31.98350647 -4.32129532 31.98350647 -4.22665405 30.6595459 C-4.0959579 28.85457959 -3.96310072 27.04976851 -3.828125 25.24511719 C-3.62345374 22.47910323 -3.4326463 19.71233708 -3.2421875 16.9453125 C-3.11282196 15.18222962 -2.98264339 13.41920617 -2.8515625 11.65625 C-2.79626373 10.83129028 -2.74096497 10.00633057 -2.68399048 9.15637207 C-2.38697692 5.36334572 -2.14903505 3.22355257 0 0 Z " fill="#FFFFFF" transform="translate(218,206)"/>
<path d="M0 0 C1.32 0 2.64 0 4 0 C6.0078125 2.16796875 6.0078125 2.16796875 8.125 5.1875 C8.91042048 6.28459791 9.69691981 7.3809241 10.484375 8.4765625 C10.89236328 9.05180664 11.30035156 9.62705078 11.72070312 10.21972656 C13.87429904 13.21667721 16.12386588 16.13852228 18.375 19.0625 C18.79152832 19.60994873 19.20805664 20.15739746 19.63720703 20.72143555 C21.26924623 22.85039911 22.86986147 24.87520193 24.80859375 26.734375 C25.20175781 27.15203125 25.59492188 27.5696875 26 28 C25.6875 30.1875 25.6875 30.1875 25 32 C24.34 32 23.68 32 23 32 C22.79117187 32.66 22.58234375 33.32 22.3671875 34 C20.49542729 38.10717669 17.86809417 41.43463539 15.125 45 C14.59519531 45.69867188 14.06539063 46.39734375 13.51953125 47.1171875 C11.29380566 50.04432041 9.04428414 52.94483636 6.7421875 55.8125 C4.88416542 58.08225775 4.88416542 58.08225775 3 61 C2.01 61 1.02 61 0 61 C0 40.87 0 20.74 0 0 Z " fill="#FFFFFF" transform="translate(388,225)"/>
</svg>
